<svg width="80" height="80" viewBox="0 0 80 80" fill="none" xmlns="http://www.w3.org/2000/svg">
<path d="M40.0005 79.2577C61.9186 79.2577 79.6866 61.5152 79.6866 39.6288C79.6866 17.7424 61.9186 0 40.0005 0C18.0825 0 0.314453 17.7424 0.314453 39.6288C0.314453 61.5152 18.0825 79.2577 40.0005 79.2577Z" fill="#0052FF" fill-opacity="0.2"/>
<path d="M60 39.7579C60 50.925 51.0457 59.9776 40 59.9776C28.9543 59.9776 20 50.925 20 39.7579C20 28.5908 28.9543 19.5381 40 19.5381C51.0457 19.5381 60 28.5908 60 39.7579Z" fill="#0052FF"/>
<path d="M40.0049 32.6495C36.1201 32.6495 32.9736 35.8306 32.9736 39.758C32.9736 43.6855 36.1201 46.8666 40.0049 46.8666C43.4853 46.8666 46.374 44.3015 46.9307 40.9428H54.0146C53.417 48.2409 47.376 53.975 40.0049 53.975C32.2412 53.975 25.9424 47.607 25.9424 39.758C25.9424 31.909 32.2412 25.541 40.0049 25.541C47.376 25.541 53.417 31.2752 54.0146 38.5733H46.9248C46.3682 35.2145 43.4853 32.6495 40.0049 32.6495Z" fill="white"/>
</svg>
