<svg width="81" height="80" viewBox="0 0 81 80" fill="none" xmlns="http://www.w3.org/2000/svg">
<g clip-path="url(#clip0_2_415)">
<path d="M40.4396 79.2577C62.5985 79.2577 80.5618 61.5152 80.5618 39.6288C80.5618 17.7424 62.5985 0 40.4396 0C18.2807 0 0.317383 17.7424 0.317383 39.6288C0.317383 61.5152 18.2807 79.2577 40.4396 79.2577Z" fill="#0364FF" fill-opacity="0.2"/>
<path d="M43.5268 23.9336H25.4941V33.7233H43.5268V23.9336Z" fill="#0364FF"/>
<path d="M43.5279 23.9473H33.7383V56.4005H43.5279V23.9473Z" fill="#0364FF"/>
<path d="M50.8457 33.7187C53.5478 33.7187 55.7383 31.5283 55.7383 28.8262C55.7383 26.1241 53.5478 23.9336 50.8457 23.9336C48.1436 23.9336 45.9531 26.1241 45.9531 28.8262C45.9531 31.5283 48.1436 33.7187 50.8457 33.7187Z" fill="#0364FF"/>
</g>
<defs>
<clipPath id="clip0_2_415">
<rect width="80.8791" height="80" fill="white"/>
</clipPath>
</defs>
</svg>
