<svg width="80" height="80" viewBox="0 0 80 80" fill="none" xmlns="http://www.w3.org/2000/svg">
<path d="M40.0005 79.3944C61.9186 79.3944 79.6866 61.652 79.6866 39.7656C79.6866 17.8792 61.9186 0.136719 40.0005 0.136719C18.0825 0.136719 0.314453 17.8792 0.314453 39.7656C0.314453 61.652 18.0825 79.3944 40.0005 79.3944Z" fill="#6851FF" fill-opacity="0.2"/>
<path fill-rule="evenodd" clip-rule="evenodd" d="M40.262 23.873H48.062H55.862V31.9609H48.062H40.262H32.4621V40.0486V40.5672V48.0893V48.1364V56.177H24.6621V48.1364V48.0893V40.5672V40.0486V31.9609V23.873H32.4621H40.262ZM48.0625 48.0918H40.308V40.0512H55.8579V48.3747C55.8579 50.4439 55.0655 52.4283 53.6549 53.8919C52.2443 55.3554 50.3309 56.1783 48.3353 56.1796H48.0625V48.0918Z" fill="#6851FF"/>
</svg>
