<svg width="81" height="80" viewBox="0 0 81 80" fill="none" xmlns="http://www.w3.org/2000/svg">
<g clip-path="url(#clip0_2_410)">
<path d="M25.8394 44.6777C25.6733 44.5216 25.541 44.3333 25.4506 44.1242C25.3602 43.9151 25.3135 43.6897 25.3135 43.4618C25.3135 43.2341 25.3602 43.0086 25.4506 42.7995C25.541 42.5904 25.6733 42.4021 25.8394 42.246C26.1829 41.9224 26.6372 41.7422 27.1093 41.7422C27.5813 41.7422 28.0355 41.9224 28.3791 42.246L41.0754 54.4043C41.2415 54.5603 41.374 54.7487 41.4644 54.9579C41.555 55.1671 41.6017 55.3927 41.6017 55.6205C41.6017 55.8485 41.555 56.074 41.4644 56.2832C41.374 56.4923 41.2415 56.6807 41.0754 56.8368C40.7318 57.1601 40.2778 57.3402 39.806 57.3402C39.3341 57.3402 38.8801 57.1601 38.5365 56.8368L25.8394 44.6785V44.6777Z" fill="#FF3568"/>
<path fill-rule="evenodd" clip-rule="evenodd" d="M24.0873 32.2505L30.5779 26.0351C34.8742 21.9208 39.7805 22.2417 43.6196 25.919C44.1076 26.385 44.7168 27.2026 45.0825 27.7283C45.2346 27.9322 45.326 28.0782 45.4482 28.1942C45.6917 28.4281 45.9361 28.487 46.4539 28.341C49.6539 27.4944 52.4566 28.4289 55.1379 30.996C58.8865 34.5863 59.2829 39.4004 54.5287 43.9533L45.4175 52.6786C44.9304 53.1454 44.5339 53.1164 44.046 52.6496L24.119 33.5639C23.6311 33.0979 23.6003 32.7182 24.0882 32.2513L24.0873 32.2505ZM37.4034 35.5489L38.9577 34.0606C39.7498 33.3019 39.872 32.2513 38.9269 31.3467C38.0126 30.4711 36.8856 30.559 36.0935 31.3177L34.5392 32.8061C34.0513 33.272 34.0821 33.6518 34.57 34.1186L36.032 35.5199C36.5199 35.9859 36.9164 36.0157 37.4034 35.5489ZM44.839 42.6698L48.9216 38.7586C50.1102 37.621 50.3546 36.5696 49.3489 35.607C48.3731 34.6733 47.246 34.8773 46.0574 36.0157L41.9748 39.9261C41.4869 40.3929 41.5177 40.7727 42.0047 41.2395L43.4676 42.6399C43.9555 43.1067 44.3511 43.1357 44.839 42.6689V42.6698Z" fill="#FF3568"/>
<path d="M40.4396 79.3944C62.5985 79.3944 80.5618 61.652 80.5618 39.7656C80.5618 17.8792 62.5985 0.136719 40.4396 0.136719C18.2807 0.136719 0.317383 17.8792 0.317383 39.7656C0.317383 61.652 18.2807 79.3944 40.4396 79.3944Z" fill="#FF3568" fill-opacity="0.2"/>
</g>
<defs>
<clipPath id="clip0_2_410">
<rect width="80.8791" height="80" fill="white"/>
</clipPath>
</defs>
</svg>
