<svg width="80" height="80" viewBox="0 0 80 80" fill="none" xmlns="http://www.w3.org/2000/svg">
<path d="M40.0005 79.3944C61.9186 79.3944 79.6866 61.652 79.6866 39.7656C79.6866 17.8792 61.9186 0.136719 40.0005 0.136719C18.0825 0.136719 0.314453 17.8792 0.314453 39.7656C0.314453 61.652 18.0825 79.3944 40.0005 79.3944Z" fill="#3C99FC" fill-opacity="0.2"/>
<path d="M26.9656 31.1442C34.3377 23.8621 46.2903 23.8621 53.6624 31.1442L54.5497 32.0206C54.9183 32.3847 54.9183 32.9751 54.5497 33.3391L51.5145 36.3372C51.3302 36.5192 51.0314 36.5192 50.8471 36.3372L49.6262 35.1311C44.4831 30.0509 36.1448 30.0509 31.0017 35.1311L29.6942 36.4227C29.5099 36.6048 29.2111 36.6048 29.0268 36.4227L25.9917 33.4246C25.6231 33.0606 25.6231 32.4703 25.9917 32.1061L26.9656 31.1442ZM59.9392 37.3445L62.6405 40.0127C63.0091 40.3768 63.0091 40.9671 62.6405 41.3312L50.4604 53.3627C50.0918 53.7268 49.4942 53.7268 49.1256 53.3627C49.1256 53.3627 49.1256 53.3627 49.1256 53.3627L40.4809 44.8236C40.3887 44.7326 40.2393 44.7326 40.1471 44.8236L31.5026 53.3627C31.1341 53.7268 30.5364 53.7268 30.1678 53.3627C30.1678 53.3627 30.1678 53.3627 30.1678 53.3627L17.9874 41.331C17.6188 40.967 17.6188 40.3766 17.9874 40.0125L20.6886 37.3443C21.0572 36.9802 21.6549 36.9802 22.0235 37.3443L30.6683 45.8835C30.7604 45.9745 30.9098 45.9745 31.002 45.8835L39.6464 37.3443C40.015 36.9802 40.6126 36.9802 40.9812 37.3442C40.9812 37.3443 40.9812 37.3443 40.9812 37.3443L49.626 45.8835C49.7182 45.9745 49.8676 45.9745 49.9598 45.8835L58.6045 37.3445C58.973 36.9803 59.5706 36.9803 59.9392 37.3445Z" fill="#3C99FC"/>
</svg>
