<svg width="80" height="80" viewBox="0 0 80 80" fill="none" xmlns="http://www.w3.org/2000/svg">
<path d="M40.0005 79.2577C61.9186 79.2577 79.6866 61.5152 79.6866 39.6288C79.6866 17.7424 61.9186 0 40.0005 0C18.0825 0 0.314453 17.7424 0.314453 39.6288C0.314453 61.5152 18.0825 79.2577 40.0005 79.2577Z" fill="#F6851B" fill-opacity="0.2"/>
<path d="M57.0403 21.9775L42.3008 33.034L45.0385 26.5108L57.0403 21.9775Z" fill="#E2761B" stroke="#E2761B" stroke-linecap="round" stroke-linejoin="round"/>
<path d="M23.0488 21.9775L37.6552 33.1388L35.0506 26.5108L23.0488 21.9775Z" fill="#E4761B" stroke="#E4761B" stroke-linecap="round" stroke-linejoin="round"/>
<path d="M51.7439 47.6064L47.8223 53.6808L56.2132 56.0148L58.6106 47.7411L51.7439 47.6064Z" fill="#E4761B" stroke="#E4761B" stroke-linecap="round" stroke-linejoin="round"/>
<path d="M21.4941 47.7411L23.8767 56.0148L32.2676 53.6808L28.3608 47.6064L21.4941 47.7411Z" fill="#E4761B" stroke="#E4761B" stroke-linecap="round" stroke-linejoin="round"/>
<path d="M31.8089 37.343L29.4707 40.9188L37.7877 41.2928L37.5064 32.2412L31.8089 37.343Z" fill="#E4761B" stroke="#E4761B" stroke-linecap="round" stroke-linejoin="round"/>
<path d="M48.2795 37.3432L42.4931 32.1367L42.3008 41.293L50.6176 40.919L48.2795 37.3432Z" fill="#E4761B" stroke="#E4761B" stroke-linecap="round" stroke-linejoin="round"/>
<path d="M32.2686 53.6816L37.2853 51.213L32.9641 47.8018L32.2686 53.6816Z" fill="#E4761B" stroke="#E4761B" stroke-linecap="round" stroke-linejoin="round"/>
<path d="M42.8047 51.213L47.8215 53.6816L47.1259 47.8018L42.8047 51.213Z" fill="#E4761B" stroke="#E4761B" stroke-linecap="round" stroke-linejoin="round"/>
<path d="M47.8215 53.6815L42.8047 51.2129L43.2043 54.5194L43.1598 55.9107L47.8215 53.6815Z" fill="#D7C1B3" stroke="#D7C1B3" stroke-linecap="round" stroke-linejoin="round"/>
<path d="M32.2686 53.6815L36.9302 55.9107L36.9006 54.5194L37.2853 51.2129L32.2686 53.6815Z" fill="#D7C1B3" stroke="#D7C1B3" stroke-linecap="round" stroke-linejoin="round"/>
<path d="M37.0179 45.617L32.8447 44.3752L35.7897 43.0137L37.0179 45.617Z" fill="#233447" stroke="#233447" stroke-linecap="round" stroke-linejoin="round"/>
<path d="M43.0703 45.617L44.2987 43.0137L47.2584 44.3752L43.0703 45.617Z" fill="#233447" stroke="#233447" stroke-linecap="round" stroke-linejoin="round"/>
<path d="M32.2682 53.6808L32.9934 47.6064L28.3613 47.7411L32.2682 53.6808Z" fill="#CD6116" stroke="#CD6116" stroke-linecap="round" stroke-linejoin="round"/>
<path d="M47.0967 47.6064L47.8218 53.6808L51.7435 47.7411L47.0967 47.6064Z" fill="#CD6116" stroke="#CD6116" stroke-linecap="round" stroke-linejoin="round"/>
<path d="M50.6176 40.9189L42.3008 41.293L43.0703 45.6169L44.2986 43.0135L47.2583 44.375L50.6176 40.9189Z" fill="#CD6116" stroke="#CD6116" stroke-linecap="round" stroke-linejoin="round"/>
<path d="M32.8448 44.375L35.7897 43.0135L37.0181 45.6169L37.7877 41.293L29.4707 40.9189L32.8448 44.375Z" fill="#CD6116" stroke="#CD6116" stroke-linecap="round" stroke-linejoin="round"/>
<path d="M29.4707 40.9189L32.9632 47.8012L32.8448 44.375L29.4707 40.9189Z" fill="#E4751F" stroke="#E4751F" stroke-linecap="round" stroke-linejoin="round"/>
<path d="M47.2592 44.375L47.126 47.8012L50.6185 40.9189L47.2592 44.375Z" fill="#E4751F" stroke="#E4751F" stroke-linecap="round" stroke-linejoin="round"/>
<path d="M37.7881 41.293L37.0186 45.6168L37.9953 50.7187L38.2025 44.001L37.7881 41.293Z" fill="#E4751F" stroke="#E4751F" stroke-linecap="round" stroke-linejoin="round"/>
<path d="M42.3019 41.293L41.9023 43.9861L42.0947 50.7187L43.0715 45.6168L42.3019 41.293Z" fill="#E4751F" stroke="#E4751F" stroke-linecap="round" stroke-linejoin="round"/>
<path d="M43.0704 45.6168L42.0938 50.7186L42.8041 51.2124L47.1253 47.8012L47.2585 44.375L43.0704 45.6168Z" fill="#F6851B" stroke="#F6851B" stroke-linecap="round" stroke-linejoin="round"/>
<path d="M32.8447 44.375L32.9631 47.8012L37.2844 51.2124L37.9947 50.7186L37.0179 45.6168L32.8447 44.375Z" fill="#F6851B" stroke="#F6851B" stroke-linecap="round" stroke-linejoin="round"/>
<path d="M43.1605 55.9108L43.2048 54.5194L42.8349 54.1903H37.2558L36.9006 54.5194L36.9302 55.9108L32.2686 53.6816L33.8964 55.0282L37.2113 57.3471H42.8793L46.1942 55.0282L47.822 53.6816L43.1605 55.9108Z" fill="#C0AD9E" stroke="#C0AD9E" stroke-linecap="round" stroke-linejoin="round"/>
<path d="M42.8052 51.2126L42.0948 50.7188H37.9955L37.2852 51.2126L36.9004 54.519L37.2556 54.1899H42.8347L43.2047 54.519L42.8052 51.2126Z" fill="#161616" stroke="#161616" stroke-linecap="round" stroke-linejoin="round"/>
<path d="M57.6627 33.7521L58.9057 27.6479L57.0411 21.9775L42.8047 32.66L48.2803 37.3429L56.02 39.632L57.7218 37.6122L56.9819 37.0736L58.1658 35.9814L57.2631 35.2633L58.447 34.3506L57.6627 33.7521Z" fill="#763D16" stroke="#763D16" stroke-linecap="round" stroke-linejoin="round"/>
<path d="M21.1836 27.6479L22.4415 33.7521L21.6424 34.3506L22.8263 35.2633L21.9236 35.9814L23.1074 37.0736L22.3675 37.6122L24.0694 39.632L31.8092 37.3429L37.2847 32.66L23.0483 21.9775L21.1836 27.6479Z" fill="#763D16" stroke="#763D16" stroke-linecap="round" stroke-linejoin="round"/>
<path d="M56.0201 39.6329L48.2803 37.3438L50.6185 40.9196L47.126 47.8018L51.7432 47.742H58.6098L56.0201 39.6329Z" fill="#F6851B" stroke="#F6851B" stroke-linecap="round" stroke-linejoin="round"/>
<path d="M31.8088 37.3438L24.0691 39.6329L21.4941 47.742H28.3607L32.9632 47.8018L29.4707 40.9196L31.8088 37.3438Z" fill="#F6851B" stroke="#F6851B" stroke-linecap="round" stroke-linejoin="round"/>
<path d="M42.3012 41.2936L42.8044 32.6609L45.039 26.5117H35.0498L37.2844 32.6609L37.7876 41.2936L37.98 44.0166L37.9948 50.7193H42.0941L42.1088 44.0166L42.3012 41.2936Z" fill="#F6851B" stroke="#F6851B" stroke-linecap="round" stroke-linejoin="round"/>
</svg>
