<svg width="16" height="21" viewBox="0 0 16 21" fill="none" xmlns="http://www.w3.org/2000/svg">
<path d="M14.4583 6.97C14.4194 6.50479 14.224 6.07844 13.9118 5.76866C13.5997 5.45888 13.1904 5.26462 12.7033 5.26462H11.6698V4.37413C11.6698 3.40594 11.2799 2.53382 10.6362 1.91427C9.99252 1.27421 9.11556 0.886719 8.15976 0.886719C7.1856 0.886719 6.30756 1.27421 5.68375 1.91427C5.04029 2.53382 4.65031 3.40594 4.65031 4.37413V5.26462H3.61696C3.12945 5.26462 2.72002 5.45888 2.40801 5.76866C2.096 6.07844 1.90105 6.50479 1.86207 6.97L0.828613 18.4382C0.828613 18.4965 0.828613 18.5548 0.828613 18.5732C0.828613 18.9995 1.00411 19.4064 1.31613 19.6968C1.60859 19.9688 1.99858 20.162 2.40801 20.2008H2.42755C2.48598 20.2008 2.54452 20.2008 2.58351 20.2008H13.7369C13.7758 20.2008 13.8341 20.2008 13.8924 20.2008C14.3212 20.162 14.711 19.9688 15.0037 19.6968C15.3158 19.4064 15.4919 18.9995 15.4919 18.5548C15.4919 18.516 15.4919 18.4771 15.4919 18.4188L14.4583 6.97ZM5.72274 4.37413C5.72274 3.69629 5.99577 3.0951 6.44473 2.6504C6.89292 2.20462 7.49664 1.9337 8.1792 1.9337C8.86176 1.9337 9.46656 2.20462 9.91476 2.6504C10.363 3.0951 10.6362 3.69629 10.6362 4.37413V5.26462H5.72274V4.37413ZM14.4 18.5732C14.4 18.7286 14.3406 18.8646 14.224 18.9607C14.1073 19.0772 13.9313 19.1549 13.7758 19.1744C13.7758 19.1744 13.7563 19.1744 13.7174 19.1744H2.58351C2.54452 19.1744 2.52497 19.1744 2.52497 19.1744H2.50553C2.33003 19.1549 2.17407 19.0772 2.057 18.9607C1.94004 18.8646 1.8815 18.7286 1.8815 18.5732V18.5159L2.91496 7.06714C2.93451 6.85342 3.03193 6.66023 3.16844 6.52423C3.2854 6.40766 3.44146 6.33104 3.61696 6.33104H4.65031V8.69376C4.65031 8.98411 4.88434 9.21723 5.1768 9.21723C5.46926 9.21723 5.7033 8.98411 5.7033 8.69376V6.33104H10.5779V8.69376C10.5779 8.98411 10.8122 9.21723 11.1038 9.21723C11.3965 9.21723 11.6309 8.98411 11.6309 8.69376V6.33104H12.6644C12.8394 6.33104 12.996 6.40766 13.1126 6.52423C13.2487 6.66023 13.347 6.85342 13.3664 7.06714L14.4 18.5354V18.5732Z" fill="white"/>
</svg>
