<svg width="21" height="23" viewBox="0 0 21 23" fill="none" xmlns="http://www.w3.org/2000/svg">
<path d="M19.854 16.3477C19.0376 15.4453 17.4478 14.1133 17.4478 9.6875C17.4478 6.37891 15.1274 3.71484 11.9478 3.02734V2.125C11.9478 1.39453 11.3462 0.75 10.6157 0.75C9.84229 0.75 9.24072 1.39453 9.24072 2.125V3.02734C6.06104 3.71484 3.74072 6.37891 3.74072 9.6875C3.74072 14.1133 2.15088 15.4453 1.33447 16.3477C1.07666 16.6055 0.947754 16.9492 0.990723 17.25C0.990723 17.9805 1.50635 18.625 2.36572 18.625H18.8228C19.6821 18.625 20.1978 17.9805 20.2407 17.25C20.2407 16.9492 20.1118 16.6055 19.854 16.3477ZM3.86963 16.5625C4.77197 15.4023 5.76025 13.3828 5.80322 9.73047C5.80322 9.73047 5.80322 9.73047 5.80322 9.6875C5.80322 7.06641 7.95166 4.875 10.6157 4.875C13.2368 4.875 15.4282 7.06641 15.4282 9.6875C15.4282 9.73047 15.3853 9.73047 15.3853 9.73047C15.4282 13.3828 16.4165 15.4023 17.3188 16.5625H3.86963ZM10.6157 22.75C12.1196 22.75 13.3228 21.5469 13.3228 20H7.86572C7.86572 21.5469 9.06885 22.75 10.6157 22.75Z" fill="white"/>
</svg>
