<svg width="42" height="41" viewBox="0 0 42 41" fill="none" xmlns="http://www.w3.org/2000/svg">
<path  d="M41.5 20.5C41.5 31.5344 32.3333 40.5 21 40.5C9.66674 40.5 0.5 31.5344 0.5 20.5C0.5 9.4656 9.66674 0.5 21 0.5C32.3333 0.5 41.5 9.4656 41.5 20.5Z"/>
<path d="M26.0833 10.7373H23.3333C22.1178 10.7373 20.952 11.2301 20.0924 12.1073C19.2329 12.9846 18.75 14.1743 18.75 15.4149V18.2214H16V21.9635H18.75V29.4476H22.4167V21.9635H25.1667L26.0833 18.2214H22.4167V15.4149C22.4167 15.1668 22.5132 14.9288 22.6852 14.7534C22.8571 14.5779 23.0902 14.4794 23.3333 14.4794H26.0833V10.7373Z" stroke-linecap="round" stroke-linejoin="round"/>
</svg>
