<svg width="32" height="32" viewBox="0 0 32 32"  xmlns="http://www.w3.org/2000/svg">
<path d="M16 31.9629C15.5444 31.9629 15.1052 31.7804 14.7629 31.4489C13.4702 30.199 12.2239 29.0243 11.1243 27.9882L11.1187 27.9828C7.89478 24.9448 5.11084 22.3213 3.17383 19.7369C1.00854 16.8477 0 14.1083 0 11.1157C0 8.20819 0.901611 5.52579 2.53857 3.56232C4.19507 1.57562 6.46802 0.481445 8.93945 0.481445C10.7866 0.481445 12.4783 1.12721 13.9673 2.40065C14.7188 3.04344 15.3999 3.83013 16 4.74775C16.6003 3.83013 17.2812 3.04344 18.033 2.40065C19.522 1.12721 21.2136 0.481445 23.0608 0.481445C25.532 0.481445 27.8052 1.57562 29.4617 3.56232C31.0986 5.52579 32 8.20819 32 11.1157C32 14.1083 30.9917 16.8477 28.8264 19.7366C26.8894 22.3213 24.1057 24.9446 20.8823 27.9823C19.7808 29.02 18.5325 30.1965 17.2368 31.4494C16.8948 31.7804 16.4553 31.9629 16 31.9629V31.9629ZM8.93945 2.55426C6.9978 2.55426 5.21411 3.41114 3.9165 4.96723C2.59961 6.54681 1.87427 8.73031 1.87427 11.1157C1.87427 13.6327 2.72021 15.8836 4.61694 18.4143C6.4502 20.8605 9.177 23.4301 12.3342 26.4054L12.3401 26.4108C13.4438 27.451 14.6951 28.6302 15.9973 29.8893C17.3074 28.6277 18.5605 27.4466 19.6665 26.4048C22.8235 23.4295 25.55 20.8605 27.3833 18.4143C29.2798 15.8836 30.1257 13.6327 30.1257 11.1157C30.1257 8.73031 29.4004 6.54681 28.0835 4.96723C26.7861 3.41114 25.0022 2.55426 23.0608 2.55426C21.6384 2.55426 20.3325 3.05424 19.1794 4.04016C18.1519 4.91918 17.436 6.03036 17.0164 6.80787C16.8005 7.20769 16.4207 7.44634 16 7.44634C15.5793 7.44634 15.1995 7.20769 14.9836 6.80787C14.5642 6.03036 13.8484 4.91918 12.8206 4.04016C11.6675 3.05424 10.3616 2.55426 8.93945 2.55426V2.55426Z"/>
</svg>
