<svg width="20" height="18" viewBox="0 0 20 18" fill="none" xmlns="http://www.w3.org/2000/svg">
<path d="M9.99998 18C9.71525 18 9.44075 17.8957 9.22682 17.7061C8.41887 16.9914 7.63991 16.3198 6.95265 15.7274L6.94914 15.7243C4.93423 13.9873 3.19427 12.4873 1.98364 11.0096C0.630339 9.35765 0 7.79138 0 6.08032C0 4.41788 0.563506 2.88418 1.58661 1.76153C2.62191 0.625613 4.0425 0 5.58715 0C6.74163 0 7.7989 0.369224 8.72954 1.09733C9.1992 1.46486 9.62492 1.91466 9.99998 2.43932C10.3752 1.91466 10.8008 1.46486 11.2706 1.09733C12.2012 0.369224 13.2585 0 14.413 0C15.9575 0 17.3782 0.625613 18.4135 1.76153C19.4366 2.88418 20 4.41788 20 6.08032C20 7.79138 19.3698 9.35765 18.0165 11.0094C16.8058 12.4873 15.066 13.9872 13.0514 15.724C12.363 16.3173 11.5828 16.99 10.773 17.7064C10.5592 17.8957 10.2846 18 9.99998 18ZM5.58715 1.18516C4.37362 1.18516 3.25881 1.67509 2.44781 2.56481C1.62475 3.46796 1.17141 4.71641 1.17141 6.08032C1.17141 7.5194 1.70013 8.80644 2.88558 10.2534C4.03136 11.652 5.73562 13.1212 7.70888 14.8224L7.71254 14.8255C8.40239 15.4202 9.1844 16.0944 9.9983 16.8144C10.8171 16.0931 11.6003 15.4177 12.2915 14.8221C14.2647 13.1209 15.9688 11.652 17.1145 10.2534C18.2998 8.80644 18.8285 7.5194 18.8285 6.08032C18.8285 4.71641 18.3752 3.46796 17.5522 2.56481C16.7413 1.67509 15.6263 1.18516 14.413 1.18516C13.524 1.18516 12.7078 1.47103 11.9871 2.03475C11.3449 2.53734 10.8975 3.17268 10.6352 3.61723C10.5003 3.84583 10.2629 3.98228 9.99998 3.98228C9.73707 3.98228 9.49965 3.84583 9.36476 3.61723C9.10261 3.17268 8.65523 2.53734 8.01283 2.03475C7.29216 1.47103 6.47597 1.18516 5.58715 1.18516Z" fill="#A1A1A1"/>
</svg>
