<svg width="42" height="41" viewBox="0 0 42 41" fill="none" xmlns="http://www.w3.org/2000/svg">
<path d="M41.5 20.5C41.5 31.5344 32.3333 40.5 21 40.5C9.66674 40.5 0.5 31.5344 0.5 20.5C0.5 9.4656 9.66674 0.5 21 0.5C32.3333 0.5 41.5 9.4656 41.5 20.5Z" stroke="#A1A1A1"/>
<path d="M25.5835 11.5513H16.4168C13.8855 11.5513 11.8335 13.5544 11.8335 16.0255V24.9739C11.8335 27.4449 13.8855 29.4481 16.4168 29.4481H25.5835C28.1148 29.4481 30.1668 27.4449 30.1668 24.9739V16.0255C30.1668 13.5544 28.1148 11.5513 25.5835 11.5513Z" stroke="#A1A1A1" stroke-linecap="round" stroke-linejoin="round"/>
<path d="M24.6667 19.9359C24.7799 20.6807 24.6495 21.4412 24.2943 22.1095C23.9391 22.7778 23.3771 23.3197 22.6882 23.6582C21.9993 23.9967 21.2186 24.1145 20.4572 23.9949C19.6958 23.8753 18.9923 23.5243 18.447 22.992C17.9016 22.4596 17.5421 21.7729 17.4196 21.0296C17.2971 20.2863 17.4178 19.5242 17.7645 18.8517C18.1113 18.1792 18.6664 17.6306 19.351 17.2838C20.0355 16.9371 20.8147 16.8099 21.5776 16.9203C22.3557 17.033 23.0762 17.3869 23.6324 17.93C24.1887 18.473 24.5513 19.1763 24.6667 19.9359Z" stroke="#A1A1A1" stroke-linecap="round" stroke-linejoin="round"/>
<path d="M26.0415 15.5779H26.0515" stroke="#A1A1A1" stroke-width="2" stroke-linecap="round" stroke-linejoin="round"/>
</svg>
