<svg width="42" height="41" viewBox="0 0 42 41" fill="none" xmlns="http://www.w3.org/2000/svg">
<path d="M41.5 20.5C41.5 31.5344 32.3333 40.5 21 40.5C9.66674 40.5 0.5 31.5344 0.5 20.5C0.5 9.4656 9.66674 0.5 21 0.5C32.3333 0.5 41.5 9.4656 41.5 20.5Z" stroke="#A1A1A1"/>
<path d="M24.6665 17.2456C26.1252 17.2456 27.5241 17.837 28.5556 18.8896C29.587 19.9423 30.1665 21.37 30.1665 22.8587V29.4073H26.4998V22.8587C26.4998 22.3625 26.3067 21.8866 25.9629 21.5357C25.6191 21.1848 25.1527 20.9877 24.6665 20.9877C24.1803 20.9877 23.714 21.1848 23.3701 21.5357C23.0263 21.8866 22.8332 22.3625 22.8332 22.8587V29.4073H19.1665V22.8587C19.1665 21.37 19.746 19.9423 20.7774 18.8896C21.8089 17.837 23.2078 17.2456 24.6665 17.2456V17.2456Z" stroke="#A1A1A1" stroke-linecap="round" stroke-linejoin="round"/>
<path d="M15.5002 18.1812H11.8335V29.4073H15.5002V18.1812Z" stroke="#A1A1A1" stroke-linecap="round" stroke-linejoin="round"/>
<path d="M13.6668 15.3746C14.6794 15.3746 15.5002 14.5369 15.5002 13.5036C15.5002 12.4703 14.6794 11.6326 13.6668 11.6326C12.6543 11.6326 11.8335 12.4703 11.8335 13.5036C11.8335 14.5369 12.6543 15.3746 13.6668 15.3746Z" stroke="#A1A1A1" stroke-linecap="round" stroke-linejoin="round"/>
</svg>
