<svg width="24" height="24" viewBox="0 0 24 24"  xmlns="http://www.w3.org/2000/svg">
<path d="M10.5691 0C4.74145 0 0 4.74145 0 10.5691C0 16.3971 4.74145 21.1382 10.5691 21.1382C16.3971 21.1382 21.1382 16.3971 21.1382 10.5691C21.1382 4.74145 16.3971 0 10.5691 0ZM10.5691 19.187C5.81723 19.187 1.95122 15.321 1.95122 10.5691C1.95122 5.81728 5.81723 1.95122 10.5691 1.95122C15.321 1.95122 19.187 5.81723 19.187 10.5691C19.187 15.321 15.321 19.187 10.5691 19.187Z" />
<path d="M23.7137 22.3344L18.1202 16.7409C17.7391 16.3598 17.1218 16.3598 16.7407 16.7409C16.3595 17.1217 16.3595 17.7397 16.7407 18.1205L22.3342 23.714C22.5247 23.9045 22.7742 23.9998 23.024 23.9998C23.2734 23.9998 23.5231 23.9045 23.7137 23.714C24.0949 23.3332 24.0949 22.7152 23.7137 22.3344Z" />
</svg>
