<svg width="42" height="41" viewBox="0 0 42 41" fill="none" xmlns="http://www.w3.org/2000/svg">
<path d="M41.5 20.5C41.5 31.5344 32.3333 40.5 21 40.5C9.66674 40.5 0.5 31.5344 0.5 20.5C0.5 9.4656 9.66674 0.5 21 0.5C32.3333 0.5 41.5 9.4656 41.5 20.5Z" stroke="#A1A1A1"/>
<g clip-path="url(#clip0_322_10611)">
<path d="M31.1667 12.6991C30.2889 13.2978 29.3169 13.7557 28.2883 14.0552C27.7363 13.4414 27.0026 13.0064 26.1864 12.8089C25.3703 12.6115 24.5112 12.6612 23.7252 12.9512C22.9393 13.2413 22.2644 13.7577 21.7919 14.4307C21.3194 15.1037 21.0721 15.9008 21.0833 16.7141V17.6004C19.4724 17.6408 17.8762 17.2954 16.4368 16.5949C14.9973 15.8943 13.7595 14.8605 12.8333 13.5854C12.8333 13.5854 9.16667 21.5623 17.4167 25.1075C15.5288 26.3466 13.2799 26.9678 11 26.8802C19.25 31.3117 29.3333 26.8802 29.3333 16.6875C29.3325 16.4406 29.3079 16.1944 29.26 15.9519C30.1956 15.0598 30.8558 13.9335 31.1667 12.6991V12.6991Z" stroke="#A1A1A1" stroke-linecap="round" stroke-linejoin="round"/>
</g>
<defs>
<clipPath id="clip0_322_10611">
<rect width="22" height="17.5714" fill="white" transform="translate(10 11.7141)"/>
</clipPath>
</defs>
</svg>
