<svg width="22" height="23" viewBox="0 0 22 23" fill="none" xmlns="http://www.w3.org/2000/svg">
<path d="M15.5835 2.55127H6.41683C3.88552 2.55127 1.8335 4.55444 1.8335 7.02548V15.9739C1.8335 18.4449 3.88552 20.4481 6.41683 20.4481H15.5835C18.1148 20.4481 20.1668 18.4449 20.1668 15.9739V7.02548C20.1668 4.55444 18.1148 2.55127 15.5835 2.55127Z" stroke="#A1A1A1" stroke-linecap="round" stroke-linejoin="round"/>
<path d="M14.6667 10.9362C14.7799 11.6809 14.6495 12.4415 14.2943 13.1098C13.9391 13.778 13.3771 14.3199 12.6882 14.6584C11.9993 14.9969 11.2186 15.1147 10.4572 14.9951C9.69575 14.8755 8.99234 14.5246 8.44699 13.9922C7.90165 13.4598 7.54214 12.7732 7.41962 12.0299C7.29709 11.2865 7.41778 10.5244 7.76452 9.85196C8.11126 9.17947 8.66639 8.63083 9.35096 8.28408C10.0355 7.93733 10.8147 7.81012 11.5776 7.92056C12.3557 8.0332 13.0762 8.38718 13.6324 8.93021C14.1887 9.47324 14.5513 10.1765 14.6667 10.9362Z" stroke="#A1A1A1" stroke-linecap="round" stroke-linejoin="round"/>
<path d="M16.0415 6.57812H16.0515" stroke="#A1A1A1" stroke-width="2" stroke-linecap="round" stroke-linejoin="round"/>
</svg>
