<svg width="22" height="24" viewBox="0 0 22 24" fill="none" xmlns="http://www.w3.org/2000/svg">
<path d="M14.6665 8.24561C16.1252 8.24561 17.5241 8.83698 18.5556 9.88964C19.587 10.9423 20.1665 12.37 20.1665 13.8587V20.4073H16.4998V13.8587C16.4998 13.3625 16.3067 12.8866 15.9629 12.5357C15.6191 12.1848 15.1527 11.9877 14.6665 11.9877C14.1803 11.9877 13.714 12.1848 13.3701 12.5357C13.0263 12.8866 12.8332 13.3625 12.8332 13.8587V20.4073H9.1665V13.8587C9.1665 12.37 9.74597 10.9423 10.7774 9.88964C11.8089 8.83698 13.2078 8.24561 14.6665 8.24561V8.24561Z" stroke="#A1A1A1" stroke-linecap="round" stroke-linejoin="round"/>
<path d="M5.50016 9.18115H1.8335V20.4073H5.50016V9.18115Z" stroke="#A1A1A1" stroke-linecap="round" stroke-linejoin="round"/>
<path d="M3.66683 6.37488C4.67935 6.37488 5.50016 5.53719 5.50016 4.50384C5.50016 3.4705 4.67935 2.63281 3.66683 2.63281C2.65431 2.63281 1.8335 3.4705 1.8335 4.50384C1.8335 5.53719 2.65431 6.37488 3.66683 6.37488Z" stroke="#A1A1A1" stroke-linecap="round" stroke-linejoin="round"/>
</svg>
