<svg width="22" height="19" viewBox="0 0 22 19" fill="none" xmlns="http://www.w3.org/2000/svg">
<g clip-path="url(#clip0_322_10613)">
<path d="M21.1667 1.69885C20.2889 2.29754 19.3169 2.75544 18.2883 3.05492C17.7363 2.44115 17.0026 2.00613 16.1864 1.80869C15.3703 1.61125 14.5112 1.66092 13.7252 1.95097C12.9393 2.24102 12.2644 2.75747 11.7919 3.43046C11.3194 4.10346 11.0721 4.90052 11.0833 5.71386V6.60018C9.47241 6.64057 7.87617 6.29512 6.43676 5.59461C4.99735 4.89409 3.75946 3.86026 2.83333 2.58517C2.83333 2.58517 -0.833333 10.562 7.41667 14.1073C5.52882 15.3463 3.27989 15.9676 1 15.8799C9.25 20.3115 19.3333 15.8799 19.3333 5.68727C19.3325 5.44039 19.3079 5.19412 19.26 4.95163C20.1956 4.05955 20.8558 2.93324 21.1667 1.69885V1.69885Z" stroke="#A1A1A1" stroke-linecap="round" stroke-linejoin="round"/>
</g>
<defs>
<clipPath id="clip0_322_10613">
<rect width="22" height="17.5714" fill="white" transform="translate(0 0.713867)"/>
</clipPath>
</defs>
</svg>
