<svg width="243" height="150" viewBox="0 0 243 150" fill="none" xmlns="http://www.w3.org/2000/svg">
<path d="M84.5865 32.1959C61.9964 42.8319 38.7487 54.2171 21.6742 72.968C10.173 85.5979 -1.78245 104.663 0.401196 122.569C3.05465 144.327 27.172 150.395 45.5842 149.395C71.3791 147.994 97.2833 141.281 121.37 132.22C145.933 122.872 169.354 110.766 191.184 96.1325C207.887 85.0229 225.593 72.5368 235.636 54.6635C243.466 40.7287 245.708 20.3997 232.963 8.40632C219.24 -4.50832 193.589 1.24975 177.187 4.15399C124.48 13.6861 76.8247 41.5071 42.6183 82.7152C40.7351 84.985 44.096 88.1329 45.994 85.844C71.1315 55.4647 103.875 32.2883 140.887 18.6764C159.027 11.9856 177.982 7.75368 197.245 6.09373C207.34 5.25176 218.753 4.10548 227.499 10.0876C238.155 17.377 239.241 32.5036 235.536 43.8521C229.894 61.1373 214.529 74.0501 200.29 84.3172C183.503 96.4815 165.694 107.172 147.065 116.268C126.887 126.151 105.674 133.763 83.8164 138.964C63.7658 143.651 34.2368 151.296 15.7104 138.745C-8.66363 122.232 11.7756 88.6479 26.6408 72.9025C42.986 55.5895 64.4233 44.2779 85.0382 32.9113C85.5244 32.6432 85.0664 31.9699 84.5865 32.1959Z" fill="#FF512F"/>
</svg>
