<svg width="20" height="20" viewBox="0 0 20 20" fill="none" xmlns="http://www.w3.org/2000/svg">
<path d="M16.5834 8.57571L15.5427 6.45416L15.658 8.81476C15.7456 10.5851 14.9279 11.5657 14.2658 12.0653C14.5111 10.245 14.7255 6.37458 12.7609 3.49672C11.5326 1.69807 9.66083 0.597442 7.19589 0.225224L5.70661 0L6.78179 1.05539C8.06465 2.31464 8.71711 3.64746 8.72094 5.01794C8.72282 5.80854 8.50686 6.51558 8.23872 7.08826C8.17469 6.08834 7.81768 4.9603 6.6706 4.34043L5.89574 3.92204L5.95145 4.8003C6.07809 6.80206 5.22325 8.02371 4.31758 9.31746C3.40315 10.6236 2.458 11.9738 2.63256 14.0833C2.93047 17.6843 5.14274 19.6713 9.20818 19.989C9.30228 19.9967 9.40037 20 9.50038 20C11.5836 20 14.7222 18.4212 16.3691 15.7779C17.3264 14.2438 18.1398 11.7476 16.5834 8.57571ZM9.50082 19.0251C9.47843 19.0251 9.45796 19.0232 9.43655 19.0227C9.50083 19.0212 9.55895 19.0203 9.61397 19.0198C9.57677 19.0208 9.53749 19.0251 9.50082 19.0251ZM15.5423 15.2626C14.213 17.3952 11.7355 18.7779 9.96326 18.9927C11.8845 18.3931 12.9728 11.158 9.04385 9.98856C10.0802 11.7872 8.49234 13.4694 7.12235 14.2852C5.75237 15.1011 4.82815 15.8688 5.38705 17.6234C5.40752 17.6877 5.43828 17.743 5.46564 17.8015C4.35617 16.9709 3.748 15.7197 3.60606 14.0033C3.46008 12.2449 4.26546 11.0947 5.11749 9.87738C5.87808 8.79123 6.72179 7.58509 6.90423 5.87005C7.58814 7.01309 7.1071 8.78743 7.10094 8.80934L6.60918 10.5699L7.91247 9.28919C7.98511 9.21753 9.69681 7.50629 9.69636 5.0287C9.69587 3.81135 9.28486 2.63498 8.47235 1.51718C9.9633 1.99369 11.1302 2.84001 11.9537 4.04403C14.3145 7.49699 13.1525 12.8155 13.1405 12.8698L12.9515 13.7071L13.7678 13.4394C13.7911 13.4318 15.6157 12.8089 16.3444 10.8271C16.7368 12.7306 16.1767 14.2438 15.5423 15.2626Z" fill="#FF512F"/>
<path d="M13.8682 2.96243C14.1144 3.32776 14.2373 3.64565 14.3173 4.06547C14.3969 4.48553 14.6231 5.38618 14.6231 5.38618L15.0022 4.12073C15.3246 2.971 14.916 1.99416 13.7996 1.64604L12.0236 1.29883C12.0236 1.29883 12.6842 1.84986 13.0567 2.12492C13.2438 2.26253 13.6215 2.59715 13.8682 2.96243Z" fill="#FF512F"/>
</svg>
