<svg width="44" height="44" viewBox="0 0 44 44" fill="none" xmlns="http://www.w3.org/2000/svg">
<path d="M39.2633 0H22.5649C22.2232 0 21.8952 0.135955 21.6535 0.377654L1.38473 20.6458C-0.461577 22.4927 -0.461577 25.4975 1.38473 27.3438L16.6557 42.6145C17.5473 43.5061 18.7367 43.9972 20.0042 43.9975H20.0046C21.2725 43.9975 22.4618 43.5061 23.3538 42.6141L43.6219 22.3457C43.8636 22.104 43.9995 21.776 43.9995 21.4343L43.9999 4.73595C43.9995 2.1246 41.8746 0 39.2633 0ZM41.4214 20.9005L21.5306 40.7913C21.1258 41.1965 20.5836 41.4194 20.0046 41.4194C19.4252 41.4194 18.8834 41.1965 18.4785 40.7917L3.20754 25.521C2.3663 24.6798 2.3663 23.3101 3.20754 22.4686L23.0987 2.57812H39.2633C40.4533 2.57812 41.4218 3.54625 41.4218 4.73628L41.4214 20.9005Z" fill="#FF512F"/>
<path d="M32.6379 7.31152C31.5559 7.31152 30.5388 7.73315 29.7737 8.4982C29.0087 9.26291 28.5874 10.2801 28.5874 11.362C28.5874 12.4439 29.0087 13.4611 29.7737 14.2261C30.5388 14.9912 31.5559 15.4125 32.6379 15.4125C33.7195 15.4125 34.7366 14.9912 35.5017 14.2261C36.2667 13.4611 36.688 12.4439 36.688 11.362C36.688 10.2801 36.2667 9.26291 35.502 8.4982C34.737 7.73315 33.7198 7.31152 32.6379 7.31152ZM33.6789 12.403C33.4009 12.6813 33.031 12.8344 32.6379 12.8344C32.2444 12.8344 31.8748 12.6813 31.5969 12.403C31.3186 12.125 31.1655 11.7551 31.1655 11.362C31.1655 10.9689 31.3186 10.599 31.5969 10.321C31.8748 10.0427 32.2448 9.88965 32.6379 9.88965C33.031 9.88965 33.4006 10.0427 33.6789 10.321C33.9572 10.599 34.1102 10.9689 34.1102 11.362C34.1102 11.7551 33.9568 12.125 33.6789 12.403Z" fill="#FF512F"/>
</svg>
